# xmcd CD database file
#
# Track frame offsets:
#	150
#	16662
#	38352
#	55942
#	72005
#	89845
#	110045
#	129282
#	143770
#
# Disc length: 2182 seconds
#
# Revision: 0
# Processed by: cddbd v1.5.1PL0 Copyright (c) Steve Scherf et al.
# Submitted via: CDex 1.51
#
DISCID=70088409
DTITLE=Adshade Cafe - The Thunder God's Wife
DYEAR=1994
DGENRE=New Age
TTITLE0=Chaos (the way in)
TTITLE1=Jason
TTITLE2=Love Dance
TTITLE3=I Remain
TTITLE4=Shelter
TTITLE5=Lord of Thunder
TTITLE6=Hell Hath no Fury
TTITLE7=Echo
TTITLE8=Tears of Sand
EXTD=YEAR: 1994
EXTT0=
EXTT1=
EXTT2=
EXTT3=
EXTT4=
EXTT5=
EXTT6=
EXTT7=
EXTT8=
PLAYORDER=
